<svg width="486" height="340" viewBox="0 0 486 340" fill="none" xmlns="http://www.w3.org/2000/svg">
<g clip-path="url(#clip0_21_2)">
<path d="M429.017 331.453L420.889 331.452L417.022 300.103L429.018 300.104L429.017 331.453Z" fill="#FFB8B8"/>
<path d="M431.089 339.331L404.883 339.33V338.998C404.883 336.293 405.958 333.699 407.87 331.786C409.783 329.873 412.378 328.798 415.083 328.798H415.084L431.09 328.799L431.089 339.331Z" fill="#2F2E41"/>
<path d="M464.887 311.471L459.612 317.654L433.255 300.247L441.041 291.122L464.887 311.471Z" fill="#FFB8B8"/>
<path d="M472.226 315.008L455.215 334.943L454.963 334.728C452.905 332.972 451.629 330.471 451.416 327.774C451.202 325.077 452.069 322.406 453.824 320.348L453.825 320.347L464.215 308.172L472.226 315.008Z" fill="#2F2E41"/>
<path d="M371.308 177.283L368.778 200.616L471.05 199.157L426.448 126.483L390.032 125.175L371.308 177.283Z" fill="#2F2E41"/>
<path opacity="0.28" d="M371.308 177.283L368.778 200.616L471.05 199.157L426.448 126.483L390.032 125.175L371.308 177.283Z" fill="black"/>
<path d="M391.418 181.289L387.808 202.638V221.721L416.919 231.223C416.919 231.223 413.511 305.344 418.054 310.065L417.942 321.461L430.642 322.039L430.745 314.018L436.129 254.068L439.301 210.052L434.159 176.681L391.418 181.289Z" fill="#2F2E41"/>
<path d="M413.972 199.666L387.808 221.721C387.808 221.721 386.277 261.511 390.165 266.178C393.505 270.186 436.944 304.757 436.944 304.757C436.944 304.757 444.665 311.838 448.991 311.951C453.318 312.064 458.35 302.989 458.35 302.989L448.33 295.376C448.33 295.376 422.371 271.146 414.664 261.511C411.553 257.623 411.553 257.234 411.553 257.234L412.615 241.063L423.309 211.051L413.972 199.666Z" fill="#2F2E41"/>
<path d="M386.194 94.0253L374.913 92.9828L364.681 94.688L343.014 94.6949L341.168 110.398L360.941 114.823L365.759 112.462L385.845 120.114L386.194 94.0253Z" fill="#2F2E41"/>
<path d="M399.667 93.9761C399.667 93.9761 423.608 91.7329 429.052 96.0104C434.496 100.288 446.162 185.061 446.162 185.061L399.667 187.685L391.332 181.95L393.698 139.628L399.667 93.9761Z" fill="#CCCCCC"/>
<path d="M406.975 93.4481L380.566 94.0276L355.945 205.282L375.388 209.56L406.975 93.4481Z" fill="#2F2E41"/>
<path d="M425.748 92.5077L446.55 99.0185L445.369 144.729L471.05 199.38L440.86 202.56L416.997 143.548L425.748 92.5077Z" fill="#2F2E41"/>
<path d="M460.051 204.931C460.78 204.289 461.36 203.495 461.749 202.605C462.138 201.714 462.328 200.75 462.304 199.778C462.28 198.807 462.043 197.853 461.61 196.983C461.177 196.113 460.559 195.348 459.799 194.743L463.984 180.144L455.732 175.437L450.112 196.137C449.18 197.481 448.773 199.121 448.969 200.745C449.165 202.369 449.95 203.864 451.175 204.948C452.401 206.032 453.981 206.629 455.617 206.626C457.252 206.623 458.83 206.02 460.051 204.931V204.931Z" fill="#FFB8B8"/>
<path d="M434.496 100.288L446.805 99.2203C446.805 99.2203 457.855 110.778 460.369 119.727C462.883 128.675 465.605 156.674 465.605 156.674L464.47 197.632L450.082 187.862L449.117 152.632L434.496 100.288Z" fill="#2F2E41"/>
<path d="M431.527 79.701C436.149 71.2455 433.041 60.6439 424.586 56.0217C416.13 51.3995 405.529 54.507 400.906 62.9625C396.284 71.4181 399.392 82.0197 407.847 86.6419C416.303 91.2641 426.904 88.1566 431.527 79.701Z" fill="#FFB8B8"/>
<path d="M414.271 64.0475C411.982 63.5185 409.605 64.1047 407.287 64.4847C404.968 64.8647 402.413 64.9899 400.451 63.6962C399.003 62.7408 398.112 61.1602 397.276 59.6398C396.927 59.0968 396.695 58.4874 396.593 57.85C396.495 56.7256 397.21 55.6997 397.97 54.8647C401.498 50.9865 406.654 48.8639 411.853 48.1896C416.141 47.5505 420.522 48.0855 424.53 49.7376C428.477 51.4688 431.87 54.6389 433.422 58.6598C434.136 60.7177 434.583 62.8592 434.75 65.0312C434.984 66.6293 435.014 68.2508 434.839 69.8565C434.63 71.0468 434.317 72.2166 433.904 73.3523L431.334 81.114C431.149 81.8475 430.804 82.5308 430.323 83.1148C430.076 83.4008 429.743 83.5991 429.374 83.6799C429.004 83.7608 428.619 83.7199 428.275 83.5634C428.481 82.7203 428.512 81.8442 428.367 80.9886C428.287 80.5621 428.08 80.1696 427.775 79.8615C427.469 79.5533 427.079 79.3438 426.653 79.2597C425.705 79.1592 424.896 79.8936 423.997 80.21C423.586 80.3319 423.155 80.3716 422.728 80.3269C422.301 80.2821 421.888 80.1537 421.511 79.9491C421.133 79.7445 420.8 79.4676 420.53 79.1342C420.26 78.8008 420.059 78.4175 419.937 78.0062C419.912 77.9233 419.891 77.8395 419.873 77.7548C419.731 76.8674 419.969 75.9175 419.633 75.0842C419.239 74.1079 418.194 73.5963 417.409 72.8947C416.692 72.2336 416.18 71.3818 415.931 70.4393C415.682 69.4968 415.707 68.5029 416.004 67.5743C416.214 66.9284 416.808 66.6347 416.689 65.8927C416.533 64.9191 415.098 64.2385 414.271 64.0475Z" fill="#2F2E41"/>
<path d="M220.285 137.804H0V0H220.285V137.804Z" fill="white"/>
<path d="M220.285 137.804H0V0H220.285V137.804ZM1.00587 136.798H219.279V1.00587H1.00587V136.798Z" fill="#3F3D56"/>
<path d="M193.378 328.668H67.6447V190.864H193.378V328.668Z" fill="white"/>
<path d="M193.378 328.668H67.6447V190.864H193.378V328.668ZM68.6505 327.662H192.372V191.87H68.6505V327.662Z" fill="#3F3D56"/>
<path d="M176.278 315.653H150.126V316.713H176.278V315.653Z" fill="#3F3D56"/>
<path d="M176.278 318.833H150.126V319.894H176.278V318.833Z" fill="#3F3D56"/>
<path d="M176.278 322.014H150.126V323.074H176.278V322.014Z" fill="#3F3D56"/>
<path d="M130.511 215.507V226.572C137.077 226.572 143.494 228.519 148.953 232.166C154.412 235.813 158.666 240.998 161.178 247.063C163.691 253.128 164.348 259.802 163.067 266.241C161.787 272.68 158.625 278.595 153.983 283.237L161.807 291.061C167.996 284.871 172.212 276.985 173.919 268.4C175.627 259.815 174.751 250.916 171.401 242.829C168.051 234.742 162.378 227.829 155.1 222.966C147.822 218.103 139.265 215.507 130.511 215.507Z" fill="#E6E6E6"/>
<path d="M161.807 291.061L153.983 283.237C148.308 288.913 140.768 292.34 132.76 292.883C124.752 293.426 116.818 291.048 110.429 286.19L103.732 295.002C112.252 301.478 122.831 304.647 133.508 303.922C144.186 303.198 154.239 298.629 161.807 291.061Z" fill="#575A89"/>
<path d="M97.3178 259.766C97.3178 255.407 98.1764 251.09 99.8445 247.063C101.513 243.036 103.958 239.376 107.04 236.294C110.122 233.212 113.782 230.767 117.809 229.099C121.836 227.431 126.152 226.572 130.511 226.572V215.507C121.247 215.507 112.215 218.415 104.69 223.82C97.1656 229.225 91.5269 236.856 88.5692 245.636C85.6114 254.416 85.4836 263.903 88.2039 272.76C90.9242 281.616 96.3554 289.396 103.732 295.002L110.429 286.19C106.351 283.097 103.045 279.102 100.771 274.517C98.496 269.933 97.3141 264.884 97.3178 259.766V259.766Z" fill="#00ABB3"/>
<path d="M379.464 243.169H253.73V105.365H379.464V243.169Z" fill="white"/>
<path d="M379.464 243.169H253.73V105.365H379.464V243.169ZM254.736 242.163H378.458V106.371H254.736V242.163Z" fill="#3F3D56"/>
<path d="M294.468 189.606H271.836V225.818H294.468V189.606Z" fill="#575A89"/>
<path d="M327.159 164.963H304.527V225.818H327.159V164.963Z" fill="#E6E6E6"/>
<path d="M359.849 136.295H337.217V225.818H359.849V136.295Z" fill="#00ABB3"/>
<path d="M367.393 226.824H265.801V121.71H266.806V225.818H367.393V226.824Z" fill="#3F3D56"/>
<path d="M342.9 109.034C346.726 109.034 349.827 105.932 349.827 102.107C349.827 98.2809 346.726 95.1796 342.9 95.1796C339.074 95.1796 335.973 98.2809 335.973 102.107C335.973 105.932 339.074 109.034 342.9 109.034Z" fill="#FFB8B8"/>
<path d="M485.23 340H377.285C377.132 340 376.985 339.939 376.877 339.831C376.768 339.723 376.707 339.576 376.707 339.423C376.707 339.27 376.768 339.123 376.877 339.015C376.985 338.906 377.132 338.845 377.285 338.845H485.23C485.383 338.845 485.53 338.906 485.639 339.015C485.747 339.123 485.808 339.27 485.808 339.423C485.808 339.576 485.747 339.723 485.639 339.831C485.53 339.939 485.383 340 485.23 340Z" fill="#CCCCCC"/>
<path d="M189.693 108.984H30.5924C30.4603 108.984 30.3337 108.931 30.2403 108.838C30.1469 108.745 30.0945 108.618 30.0945 108.486V32.2291C30.0945 32.0971 30.1469 31.9704 30.2403 31.877C30.3337 31.7837 30.4603 31.7312 30.5924 31.7312C30.7244 31.7312 30.8511 31.7837 30.9444 31.877C31.0378 31.9704 31.0903 32.0971 31.0903 32.2291V107.988H189.693C189.758 107.988 189.823 108.001 189.884 108.025C189.945 108.05 190 108.087 190.046 108.133C190.092 108.18 190.129 108.235 190.154 108.295C190.18 108.356 190.192 108.42 190.192 108.486C190.192 108.552 190.18 108.616 190.154 108.677C190.129 108.737 190.092 108.792 190.046 108.839C190 108.885 189.945 108.922 189.884 108.946C189.823 108.971 189.758 108.984 189.693 108.984V108.984Z" fill="#3F3D56"/>
<path d="M64.5852 103.507H50.1144C49.7226 103.506 49.3469 103.351 49.0698 103.074C48.7927 102.796 48.6368 102.421 48.6364 102.029V82.0808C48.6368 81.689 48.7927 81.3133 49.0698 81.0363C49.3469 80.7592 49.7226 80.6033 50.1144 80.6029H64.5852C64.9771 80.6033 65.3527 80.7592 65.6298 81.0363C65.9069 81.3133 66.0628 81.689 66.0633 82.0808V102.029C66.0628 102.421 65.9069 102.796 65.6298 103.074C65.3528 103.351 64.9771 103.506 64.5852 103.507V103.507Z" fill="#00ABB3"/>
<path d="M90.9745 103.507H76.5037C76.1119 103.506 75.7362 103.351 75.4591 103.074C75.182 102.796 75.0261 102.421 75.0257 102.029V63.1602C75.0261 62.7684 75.182 62.3927 75.4591 62.1156C75.7362 61.8386 76.1119 61.6827 76.5037 61.6823H90.9745C91.3664 61.6827 91.7421 61.8386 92.0192 62.1156C92.2962 62.3927 92.4521 62.7684 92.4526 63.1602V102.029C92.4521 102.421 92.2962 102.796 92.0192 103.074C91.7421 103.351 91.3664 103.506 90.9745 103.507V103.507Z" fill="#00ABB3"/>
<path d="M117.364 103.507H102.893C102.501 103.506 102.126 103.351 101.848 103.074C101.571 102.796 101.415 102.421 101.415 102.029V82.0808C101.415 81.689 101.571 81.3133 101.848 81.0363C102.126 80.7592 102.501 80.6033 102.893 80.6029H117.364C117.756 80.6033 118.131 80.7592 118.408 81.0363C118.686 81.3133 118.841 81.689 118.842 82.0808V102.029C118.841 102.421 118.686 102.796 118.408 103.074C118.131 103.351 117.756 103.506 117.364 103.507V103.507Z" fill="#00ABB3"/>
<path d="M143.753 103.507H129.282C128.899 103.515 128.529 103.371 128.252 103.107C127.975 102.842 127.814 102.479 127.804 102.096V55.6246C127.814 55.2417 127.975 54.8782 128.252 54.6137C128.529 54.3492 128.899 54.2054 129.282 54.2136H143.753C144.136 54.2054 144.507 54.3492 144.784 54.6137C145.061 54.8782 145.222 55.2417 145.231 55.6246V102.096C145.222 102.479 145.061 102.842 144.784 103.107C144.507 103.371 144.136 103.515 143.753 103.507V103.507Z" fill="#00ABB3"/>
<path d="M170.143 103.507H155.672C155.28 103.506 154.904 103.351 154.627 103.074C154.35 102.796 154.194 102.421 154.194 102.029V42.2479C154.194 41.856 154.35 41.4804 154.627 41.2033C154.904 40.9262 155.28 40.7704 155.672 40.77H170.143C170.534 40.7704 170.91 40.9262 171.187 41.2033C171.464 41.4804 171.62 41.856 171.621 42.2479V102.029C171.62 102.421 171.464 102.796 171.187 103.074C170.91 103.351 170.534 103.506 170.143 103.507V103.507Z" fill="#00ABB3"/>
<path d="M57.3498 74.628C58.9997 74.628 60.3373 73.2905 60.3373 71.6405C60.3373 69.9906 58.9997 68.653 57.3498 68.653C55.6999 68.653 54.3623 69.9906 54.3623 71.6405C54.3623 73.2905 55.6999 74.628 57.3498 74.628Z" fill="#3F3D56"/>
<path d="M83.7391 55.2094C85.3891 55.2094 86.7266 53.8719 86.7266 52.2219C86.7266 50.572 85.3891 49.2345 83.7391 49.2345C82.0892 49.2345 80.7517 50.572 80.7517 52.2219C80.7517 53.8719 82.0892 55.2094 83.7391 55.2094Z" fill="#3F3D56"/>
<path d="M110.128 74.628C111.778 74.628 113.116 73.2905 113.116 71.6405C113.116 69.9906 111.778 68.653 110.128 68.653C108.479 68.653 107.141 69.9906 107.141 71.6405C107.141 73.2905 108.479 74.628 110.128 74.628Z" fill="#3F3D56"/>
<path d="M136.518 45.7491C138.168 45.7491 139.505 44.4115 139.505 42.7616C139.505 41.1117 138.168 39.7741 136.518 39.7741C134.868 39.7741 133.53 41.1117 133.53 42.7616C133.53 44.4115 134.868 45.7491 136.518 45.7491Z" fill="#3F3D56"/>
<path d="M162.907 34.795C164.557 34.795 165.895 33.4575 165.895 31.8075C165.895 30.1576 164.557 28.8201 162.907 28.8201C161.257 28.8201 159.92 30.1576 159.92 31.8075C159.92 33.4575 161.257 34.795 162.907 34.795Z" fill="#3F3D56"/>
<path d="M110.191 72.3097L83.7393 52.4968L57.6482 72.039L57.0513 71.2418L83.7393 51.2522L110.065 70.9711L136.227 42.3424L136.332 42.2997L162.721 31.6667L163.093 32.5909L136.809 43.1811L110.191 72.3097Z" fill="#3F3D56"/>
</g>
<defs>
<clipPath id="clip0_21_2">
<rect width="485.808" height="340" fill="white"/>
</clipPath>
</defs>
</svg>
